<svg width="63" height="129" viewBox="0 0 63 129" fill="none" xmlns="http://www.w3.org/2000/svg">
<path d="M15.6856 15.0603C14.1589 15.0603 12.8984 14.581 11.9043 13.6223C10.9456 12.6282 10.4663 11.35 10.4663 9.7877V5.31399C10.4663 3.78725 10.9456 2.5268 11.9043 1.53264C12.8984 0.538487 14.1589 0.0414079 15.6856 0.0414079H47.2679C48.7591 0.0414079 50.0018 0.538487 50.996 1.53264C52.0256 2.5268 52.5405 3.78725 52.5405 5.31399V9.7877C52.5405 11.35 52.0256 12.6282 50.996 13.6223C50.0018 14.581 48.7591 15.0603 47.2679 15.0603H15.6856ZM25.1656 13.143L13.289 29.9727C12.2593 31.4284 11.496 32.7599 10.9989 33.967C10.5373 35.1387 10.2355 36.4169 10.0935 37.8017C9.95147 39.1864 9.88046 40.8729 9.88046 42.8612V109.434C9.88046 112.381 10.5018 114.618 11.7445 116.145C13.0227 117.707 14.8868 118.488 17.3366 118.488H45.5636C48.0135 118.488 49.8776 117.707 51.1558 116.145C52.434 114.618 53.0731 112.381 53.0731 109.434V42.8612C53.0731 40.8729 52.9843 39.1864 52.8068 37.8017C52.6648 36.4169 52.3452 35.1387 51.8481 33.967C51.351 32.7599 50.6054 31.4284 49.6113 29.9727L37.7346 13.143L47.4809 10.267L57.8663 24.8066C59.8191 27.505 61.1328 30.2745 61.8075 33.1149C62.5176 35.9554 62.8726 39.2041 62.8726 42.8612V109.434C62.8726 115.435 61.3636 120.068 58.3457 123.335C55.3277 126.637 51.067 128.288 45.5636 128.288H17.3366C11.8333 128.288 7.57259 126.637 4.55462 123.335C1.57214 120.068 0.0809054 115.435 0.0809054 109.434V42.8612C0.0809054 39.2041 0.400456 35.9554 1.03956 33.1149C1.71416 30.2745 3.02787 27.505 4.98068 24.8066L15.4193 10.267L25.1656 13.143ZM5.99259 41.37H56.8544V48.7196H5.99259V41.37ZM31.4501 91.6459C27.6865 91.6459 24.6686 90.5453 22.3962 88.3439C20.1238 86.1071 18.9877 83.1956 18.9877 79.6095C18.9877 77.7277 19.2895 76.059 19.893 74.6032C20.5322 73.112 21.0647 71.9048 21.4908 70.9817C22.485 68.8158 23.6922 66.4902 25.1124 64.0048C26.5681 61.5194 27.9883 59.2471 29.3731 57.1877C29.6571 56.6906 29.9767 56.3356 30.3317 56.1226C30.7223 55.9095 31.0951 55.803 31.4501 55.803C32.2668 55.803 32.9591 56.2646 33.5272 57.1877C34.9119 59.2471 36.3322 61.5194 37.7879 64.0048C39.2436 66.4902 40.4508 68.8158 41.4095 70.9817C41.9065 71.9048 42.4391 73.112 43.0072 74.6032C43.6108 76.059 43.9126 77.7277 43.9126 79.6095C43.9126 83.1956 42.7764 86.1071 40.5041 88.3439C38.2317 90.5453 35.2137 91.6459 31.4501 91.6459ZM5.99259 99.901H56.8544V107.251H5.99259V99.901Z" fill="#EB3B40" fill-opacity="0.77"/>
</svg>
