<svg width="60" height="55" viewBox="0 0 60 55" fill="none" xmlns="http://www.w3.org/2000/svg">
<path d="M9.67886 54.5103C3.8707 54.5103 0.89216 51.5615 0.89216 45.813V9.29602C0.89216 3.51765 3.8707 0.568891 9.67886 0.568891H51.1104C56.9186 0.568891 59.8971 3.54743 59.8971 9.29602V45.813C59.8971 51.5318 56.9186 54.5103 51.1104 54.5103H9.67886ZM9.41079 50.8169H51.3487C54.4166 50.8169 56.2037 49.1787 56.2037 45.9619V18.7082C56.2037 15.4914 54.4166 13.8234 51.3487 13.8234H9.41079C6.28332 13.8234 4.58555 15.4914 4.58555 18.7082V45.9619C4.58555 49.1787 6.28332 50.8169 9.41079 50.8169ZM24.4822 24.427C23.5291 24.427 23.2908 24.1887 23.2908 23.2654V21.508C23.2908 20.5847 23.5291 20.3464 24.4822 20.3464H26.2396C27.1629 20.3464 27.431 20.5847 27.431 21.508V23.2654C27.431 24.1887 27.1629 24.427 26.2396 24.427H24.4822ZM34.5795 24.427C33.6561 24.427 33.3881 24.1887 33.3881 23.2654V21.508C33.3881 20.5847 33.6561 20.3464 34.5795 20.3464H36.3368C37.2602 20.3464 37.5282 20.5847 37.5282 21.508V23.2654C37.5282 24.1887 37.2602 24.427 36.3368 24.427H34.5795ZM44.6767 24.427C43.7534 24.427 43.4853 24.1887 43.4853 23.2654V21.508C43.4853 20.5847 43.7534 20.3464 44.6767 20.3464H46.4341C47.3574 20.3464 47.6255 20.5847 47.6255 21.508V23.2654C47.6255 24.1887 47.3574 24.427 46.4341 24.427H44.6767ZM14.385 34.3456C13.4318 34.3456 13.1935 34.1371 13.1935 33.2137V31.4564C13.1935 30.533 13.4318 30.2947 14.385 30.2947H16.1423C17.0656 30.2947 17.3337 30.533 17.3337 31.4564V33.2137C17.3337 34.1371 17.0656 34.3456 16.1423 34.3456H14.385ZM24.4822 34.3456C23.5291 34.3456 23.2908 34.1371 23.2908 33.2137V31.4564C23.2908 30.533 23.5291 30.2947 24.4822 30.2947H26.2396C27.1629 30.2947 27.431 30.533 27.431 31.4564V33.2137C27.431 34.1371 27.1629 34.3456 26.2396 34.3456H24.4822ZM34.5795 34.3456C33.6561 34.3456 33.3881 34.1371 33.3881 33.2137V31.4564C33.3881 30.533 33.6561 30.2947 34.5795 30.2947H36.3368C37.2602 30.2947 37.5282 30.533 37.5282 31.4564V33.2137C37.5282 34.1371 37.2602 34.3456 36.3368 34.3456H34.5795ZM44.6767 34.3456C43.7534 34.3456 43.4853 34.1371 43.4853 33.2137V31.4564C43.4853 30.533 43.7534 30.2947 44.6767 30.2947H46.4341C47.3574 30.2947 47.6255 30.533 47.6255 31.4564V33.2137C47.6255 34.1371 47.3574 34.3456 46.4341 34.3456H44.6767ZM14.385 44.2939C13.4318 44.2939 13.1935 44.0854 13.1935 43.1621V41.4047C13.1935 40.4814 13.4318 40.2431 14.385 40.2431H16.1423C17.0656 40.2431 17.3337 40.4814 17.3337 41.4047V43.1621C17.3337 44.0854 17.0656 44.2939 16.1423 44.2939H14.385ZM24.4822 44.2939C23.5291 44.2939 23.2908 44.0854 23.2908 43.1621V41.4047C23.2908 40.4814 23.5291 40.2431 24.4822 40.2431H26.2396C27.1629 40.2431 27.431 40.4814 27.431 41.4047V43.1621C27.431 44.0854 27.1629 44.2939 26.2396 44.2939H24.4822ZM34.5795 44.2939C33.6561 44.2939 33.3881 44.0854 33.3881 43.1621V41.4047C33.3881 40.4814 33.6561 40.2431 34.5795 40.2431H36.3368C37.2602 40.2431 37.5282 40.4814 37.5282 41.4047V43.1621C37.5282 44.0854 37.2602 44.2939 36.3368 44.2939H34.5795Z" fill="black"/>
</svg>
