<svg width="32" height="45" viewBox="0 0 32 45" fill="none" xmlns="http://www.w3.org/2000/svg">
<path opacity="0.5" d="M5.58171 44.1962C3.98638 44.1962 2.75798 43.7495 1.89651 42.8561C1.05099 41.9787 0.628224 40.6705 0.628224 38.9316V23.114C0.628224 21.407 1.05099 20.1068 1.89651 19.2134C2.75798 18.32 3.98638 17.8733 5.58171 17.8733H26.4486C28.0598 17.8733 29.2882 18.32 30.1338 19.2134C30.9952 20.1068 31.426 21.407 31.426 23.114V38.9316C31.426 40.6705 30.9952 41.9787 30.1338 42.8561C29.2882 43.7495 28.0598 44.1962 26.4486 44.1962H5.58171ZM5.70136 41.1092H26.3768C26.9032 41.1092 27.318 40.9338 27.6211 40.5828C27.9402 40.2318 28.0997 39.7532 28.0997 39.147V22.8986C28.0997 22.2924 27.9402 21.8218 27.6211 21.4867C27.318 21.1517 26.9032 20.9842 26.3768 20.9842H5.70136C5.15895 20.9842 4.72821 21.1517 4.40914 21.4867C4.10603 21.8218 3.95448 22.2924 3.95448 22.8986V39.147C3.95448 39.7532 4.10603 40.2318 4.40914 40.5828C4.72821 40.9338 5.15895 41.1092 5.70136 41.1092ZM4.62451 19.4527V12.537C4.62451 9.76111 5.15097 7.44789 6.20388 5.59731C7.27275 3.74674 8.67664 2.3588 10.4155 1.43352C12.1544 0.492274 14.021 0.021653 16.0151 0.021653C18.0252 0.021653 19.8997 0.492274 21.6387 1.43352C23.3776 2.3588 24.7814 3.74674 25.8503 5.59731C26.9192 7.44789 27.4536 9.76111 27.4536 12.537V19.4527H24.1752V12.1302C24.1752 10.1998 23.8003 8.56462 23.0505 7.22454C22.3167 5.88447 21.3276 4.87144 20.0832 4.18545C18.8548 3.48351 17.4988 3.13254 16.0151 3.13254C14.5315 3.13254 13.1755 3.48351 11.9471 4.18545C10.7187 4.87144 9.73753 5.88447 9.00368 7.22454C8.26983 8.56462 7.90291 10.1998 7.90291 12.1302V19.4527H4.62451Z" fill="black"/>
</svg>
