<svg width="66" height="66" viewBox="0 0 66 66" fill="none" xmlns="http://www.w3.org/2000/svg">
<path d="M34.286 45.2304C29.9075 44.873 27.1673 43.473 24.9334 41.2689C17.9934 34.2991 18.0827 24.5295 24.9334 17.7086L35.0902 7.52202C41.9111 0.671376 51.6807 0.582019 58.6505 7.55181C65.5905 14.4918 65.5011 24.2614 58.6803 31.1121L49.2979 40.4647C49.6255 38.8563 49.4766 37.099 48.8511 35.699L55.8507 28.7293C61.212 23.3381 61.2716 15.6832 55.8804 10.2921C50.5488 4.93069 42.8642 4.99026 37.473 10.3814L27.763 20.0617C22.3718 25.4231 22.342 33.1375 27.7034 38.5287C29.9969 40.8221 32.9457 42.0731 37.4135 42.0731L34.286 45.2304ZM31.6947 21.2829C36.0731 21.6403 38.8134 23.0402 41.0473 25.2444C47.9873 32.2141 47.8979 41.954 41.0473 48.8046L30.8905 58.9912C24.0696 65.8121 14.3 65.9313 7.33019 58.9615C0.390184 51.9917 0.47954 42.2518 7.3004 35.4012L16.6828 26.0486C16.3552 27.657 16.5041 29.4143 17.1296 30.7844L10.13 37.784C4.76864 43.1454 4.70907 50.83 10.1002 56.2212C15.4318 61.5826 23.1165 61.523 28.5076 56.1318L38.2177 46.4516C43.6088 41.0604 43.6386 33.346 38.2773 27.9846C35.9838 25.6911 33.035 24.4401 28.5672 24.4104L31.6947 21.2829Z" fill="black"/>
</svg>
