<svg width="67" height="65" viewBox="0 0 67 65" fill="none" xmlns="http://www.w3.org/2000/svg">
<path d="M0.89216 56.2339V29.7844C0.89216 26.6272 2.91757 24.7805 6.28332 24.7805H13.2531V9.50057C13.2531 3.72219 16.2019 0.803222 22.01 0.803222H58.0802C63.9181 0.803222 66.8669 3.72219 66.8669 9.50057V55.5786C66.8669 61.3272 63.9181 64.276 58.0802 64.276H8.90444C3.54306 64.276 0.89216 61.3868 0.89216 56.2339ZM15.6359 60.5826H58.0206C61.3864 60.5826 63.1735 58.7955 63.1735 55.3701V9.67928C63.1735 6.25396 61.3864 4.46683 58.0206 4.46683H22.0994C18.7336 4.46683 16.9167 6.25396 16.9167 9.67928V56.0254C16.9167 57.8125 16.4997 59.3614 15.6359 60.5826ZM25.1375 17.7809C24.2439 17.7809 23.6184 17.1256 23.6184 16.2916C23.6184 15.4874 24.2439 14.8619 25.1375 14.8619H55.0123C55.8761 14.8619 56.5016 15.4874 56.5016 16.2916C56.5016 17.1256 55.8761 17.7809 55.0123 17.7809H25.1375ZM25.1375 28.4739C24.2439 28.4739 23.6184 27.8186 23.6184 27.0144C23.6184 26.1804 24.2439 25.5251 25.1375 25.5251H55.0123C55.8761 25.5251 56.5016 26.1804 56.5016 27.0144C56.5016 27.8186 55.8761 28.4739 55.0123 28.4739H25.1375ZM4.58555 56.2041C4.58555 58.7359 6.43225 60.5826 8.90444 60.5826C11.4064 60.5826 13.2531 58.7657 13.2531 56.2041V28.4739H6.64075C5.35997 28.4739 4.58555 29.1887 4.58555 30.4099V56.2041ZM27.014 49.979C24.8694 49.979 23.5291 48.6386 23.5291 46.5239V39.703C23.5291 37.5584 24.8694 36.2181 27.014 36.2181H34.7582C36.9325 36.2181 38.2729 37.5584 38.2729 39.703V46.5239C38.2729 48.6386 36.9325 49.979 34.7582 49.979H27.014ZM43.7236 39.1669C42.83 39.1669 42.2046 38.5116 42.2046 37.7074C42.2046 36.8734 42.83 36.2181 43.7236 36.2181H55.0123C55.8463 36.2181 56.5016 36.8734 56.5016 37.7074C56.5016 38.5116 55.8463 39.1669 55.0123 39.1669H43.7236ZM43.7236 49.979C42.83 49.979 42.2046 49.3535 42.2046 48.5493C42.2046 47.7153 42.83 47.06 43.7236 47.06H55.0123C55.8463 47.06 56.5016 47.7153 56.5016 48.5493C56.5016 49.3535 55.8463 49.979 55.0123 49.979H43.7236Z" fill="black"/>
</svg>
