<svg width="66" height="63" viewBox="0 0 66 63" fill="none" xmlns="http://www.w3.org/2000/svg">
<path d="M12.8234 61.9996C11.8405 61.2549 11.6022 60.0337 12.2277 58.2168L18.5422 39.1542L2.2198 27.3889C0.670957 26.2868 0.105034 25.155 0.492244 23.9636C0.879455 22.802 1.98152 22.2062 3.91757 22.2062L23.9929 22.3254L30.1287 3.17335C30.7245 1.32666 31.5882 0.462878 32.8392 0.462878C34.0604 0.462878 34.954 1.32666 35.5497 3.17335L41.6855 22.3254L61.7609 22.2062C63.6671 22.2062 64.7692 22.802 65.1564 23.9636C65.5436 25.155 65.0075 26.2868 63.4586 27.3889L47.1064 39.1542L53.4507 58.2168C54.0762 60.0337 53.8379 61.2549 52.8252 61.9996C51.8423 62.7442 50.5913 62.5357 49.0723 61.4039L32.8392 49.5195L16.6062 61.4039C15.0573 62.5357 13.8361 62.7442 12.8234 61.9996ZM16.0105 57.6211C16.0998 57.7105 16.1892 57.6509 16.3679 57.5318L31.5584 46.0942C32.3627 45.4687 33.286 45.4687 34.12 46.0942L49.3106 57.5318C49.4893 57.6509 49.5786 57.7105 49.6382 57.6211C49.7276 57.5318 49.6978 57.502 49.6382 57.2935L43.5024 39.2733C43.145 38.2904 43.3833 37.4564 44.2768 36.8607L59.8248 25.9294C60.0035 25.8103 60.0631 25.7507 60.0333 25.6316C60.0035 25.5422 59.9142 25.5422 59.7057 25.5422L40.6728 25.7805C39.6303 25.8103 38.9452 25.3635 38.6176 24.321L33.0477 6.15189C32.9881 5.9434 32.9286 5.85404 32.8392 5.85404C32.7499 5.85404 32.6903 5.9434 32.6307 6.15189L27.0608 24.321C26.7332 25.3635 26.0481 25.8103 25.0057 25.7805L5.97276 25.5422C5.76427 25.5422 5.67491 25.5422 5.64512 25.6316C5.58555 25.7507 5.67491 25.8103 5.85362 25.9294L21.4016 36.8607C22.2952 37.4564 22.5037 38.2904 22.176 39.2733L16.0402 57.2935C15.9807 57.502 15.9509 57.5318 16.0105 57.6211Z" fill="black"/>
</svg>
